{"title":"Van Helsing 2004 [MissouriMike]","uid":7363624,"size":986009709,"categoryP":"video","categoryS":"movies","magnet":"?xt=urn:btih:5925535eb5b343b713279fcbaee26cd945ae28b7&amp;dn=Van+Helsing+2004+%5BMissouriMike%5D&amp;tr=udp%3A%2F%2Ftracker.openbittorrent.com%3A80&amp;tr=udp%3A%2F%2Fopen.demonii.com%3A1337&amp;tr=udp%3A%2F%2Ftracker.coppersurfer.tk%3A6969&amp;tr=udp%3A%2F%2Fexodus.desync.com%3A6969","seeders":0,"leechers":0,"uploader":"MissouriMike","files":-1,"time":1340036452,"description":"Van Helsing is in the world to rid all evil, even if not everyone agrees with him. \nThe Vatican send the monster hunter and his ally, Carl to Transylvania. \nThey have been sent to this land to stop the powerful Count Dracula. Whilst, \nhere they join forces with a Gypsy Princess called Anna Valerious, \nwho is determined to end an ancient curse on her family, by destroying the vampire. \nThey just don't know how! \n\n\n\nGeneral\nComplete name                    : Van Helsing 2004.avi\nFormat                           : AVI\nFormat/Info                      : Audio Video Interleave\nFile size                        : 901 MiB\nDuration                         : 2h 11mn\nOverall bit rate                 : 957 Kbps\n\nVideo\nID                               : 0\nFormat                           : MPEG-4 Visual\nFormat profile                   : Advanced Simple@L5\nFormat settings, BVOP            : 1\nFormat settings, QPel            : No\nFormat settings, GMC             : No warppoints\nFormat settings, Matrix          : Default (MPEG)\nMuxing mode                      : Packed bitstream\nCodec ID                         : XVID\nCodec ID/Hint                    : XviD\nDuration                         : 2h 11mn\nBit rate                         : 851 Kbps\nWidth                            : 592 pixels\nHeight                           : 312 pixels\nDisplay aspect ratio             : 1.897\nFrame rate                       : 23.976 fps\nColor space                      : YUV\nChroma subsampling               : 4:2:0\nBit depth                        : 8 bits\nScan type                        : Progressive\nCompression mode                 : Lossy\nBits/(Pixel*Frame)               : 0.192\nStream size                      : 801 MiB (89%)\nWriting library                  : XviD 1.2.1 (UTC 2008-12-04)\n\nAudio\nID                               : 1\nFormat                           : MPEG Audio\nFormat version                   : Version 1\nFormat profile                   : Layer 3\nMode                             : Joint stereo\nMode extension                   : MS Stereo\nCodec ID                         : 55\nCodec ID/Hint                    : MP3\nDuration                         : 2h 11mn\nBit rate mode                    : Constant\nBit rate                         : 96.0 Kbps\nChannel(s)                       : 2 channels\nSampling rate                    : 48.0 KHz\nCompression mode                 : Lossy\nStream size                      : 90.4 MiB (10%)\nAlignment                        : Aligned on interleaves\nInterleave, duration             : 42 ms (1.00 video frame)\nInterleave, preload duration     : 504 ms\nWriting library                  : LAME3.97 \nEncoding settings                : -m j -V 4 -q 2 -lowpass 16 -b 96\n\n","torrent":{"xt":"urn:btih:5925535eb5b343b713279fcbaee26cd945ae28b7","amp;dn":"Van+Helsing+2004+%5BMissouriMike%5D","amp;tr":["udp%3A%2F%2Ftracker.openbittorrent.com%3A80","udp%3A%2F%2Fopen.demonii.com%3A1337","udp%3A%2F%2Ftracker.coppersurfer.tk%3A6969","udp%3A%2F%2Fexodus.desync.com%3A6969"],"infoHash":"5925535eb5b343b713279fcbaee26cd945ae28b7","infoHashBuffer":{"type":"Buffer","data":[89,37,83,94,181,179,67,183,19,39,159,203,174,226,108,217,69,174,40,183]},"announce":[],"urlList":[]}}